<svg width="191" height="48" viewBox="0 0 191 48" fill="none" xmlns="http://www.w3.org/2000/svg">
<path d="M4.8343 39.703C4.12573 39.703 3.57716 39.5087 3.18859 39.1202C2.82287 38.7087 2.64001 38.1487 2.64001 37.4402V17.4859C2.64001 16.7545 2.8343 16.2059 3.22287 15.8402C3.61144 15.4516 4.16001 15.2573 4.86859 15.2573H13.1314C15.7829 15.2573 17.8286 15.9202 19.2686 17.2459C20.7086 18.5716 21.4286 20.423 21.4286 22.8002C21.4286 25.1773 20.7086 27.0402 19.2686 28.3887C17.8286 29.7145 15.7829 30.3773 13.1314 30.3773H7.02859V37.4402C7.02859 38.1487 6.84573 38.7087 6.48001 39.1202C6.1143 39.5087 5.56573 39.703 4.8343 39.703ZM7.02859 26.9145H12.4457C14 26.9145 15.1772 26.5716 15.9772 25.8859C16.7772 25.1773 17.1772 24.1487 17.1772 22.8002C17.1772 21.4516 16.7772 20.4345 15.9772 19.7487C15.1772 19.063 14 18.7202 12.4457 18.7202H7.02859V26.9145Z" fill="#222222"/>
<path d="M32.0347 39.7716C30.1375 39.7716 28.7089 39.2345 27.7489 38.1602C26.7889 37.063 26.3089 35.463 26.3089 33.3602V17.143C26.3089 16.4345 26.4918 15.8973 26.8575 15.5316C27.2232 15.1659 27.7489 14.983 28.4347 14.983C29.1204 14.983 29.6461 15.1659 30.0118 15.5316C30.4004 15.8973 30.5947 16.4345 30.5947 17.143V33.1545C30.5947 34.2059 30.8118 34.983 31.2461 35.4859C31.7032 35.9887 32.3432 36.2402 33.1661 36.2402C33.3489 36.2402 33.5204 36.2402 33.6804 36.2402C33.8404 36.2173 34.0004 36.1945 34.1604 36.1716C34.4804 36.1259 34.6975 36.2173 34.8118 36.4459C34.9261 36.6516 34.9832 37.0859 34.9832 37.7487C34.9832 38.3202 34.8689 38.7659 34.6404 39.0859C34.4118 39.4059 34.0347 39.6002 33.5089 39.6687C33.2804 39.6916 33.0404 39.7145 32.7889 39.7373C32.5375 39.7602 32.2861 39.7716 32.0347 39.7716Z" fill="#222222"/>
<path d="M44.4919 39.7716C43.2805 39.7716 42.1947 39.543 41.2347 39.0859C40.2976 38.6059 39.5547 37.9659 39.0062 37.1659C38.4805 36.3659 38.2176 35.463 38.2176 34.4573C38.2176 33.223 38.5376 32.2516 39.1776 31.543C39.8176 30.8116 40.8576 30.2859 42.2976 29.9659C43.7376 29.6459 45.669 29.4859 48.0919 29.4859H49.8062V31.9545H48.1262C46.709 31.9545 45.5776 32.023 44.7319 32.1602C43.8862 32.2973 43.2805 32.5373 42.9147 32.8802C42.5719 33.2002 42.4005 33.6573 42.4005 34.2516C42.4005 35.0059 42.6633 35.623 43.189 36.103C43.7147 36.583 44.4462 36.823 45.3833 36.823C46.1376 36.823 46.8005 36.6516 47.3719 36.3087C47.9662 35.943 48.4347 35.4516 48.7776 34.8345C49.1205 34.2173 49.2919 33.5087 49.2919 32.7087V28.7659C49.2919 27.623 49.0405 26.8002 48.5376 26.2973C48.0347 25.7945 47.189 25.543 46.0005 25.543C45.3376 25.543 44.6176 25.623 43.8405 25.783C43.0862 25.943 42.2862 26.2173 41.4405 26.6059C41.0062 26.8116 40.6176 26.8687 40.2747 26.7773C39.9547 26.6859 39.7033 26.503 39.5205 26.2287C39.3376 25.9316 39.2462 25.6116 39.2462 25.2687C39.2462 24.9259 39.3376 24.5945 39.5205 24.2745C39.7033 23.9316 40.0119 23.6802 40.4462 23.5202C41.4976 23.0859 42.5033 22.7773 43.4633 22.5945C44.4462 22.4116 45.3376 22.3202 46.1376 22.3202C47.7833 22.3202 49.1319 22.5716 50.1833 23.0745C51.2576 23.5773 52.0576 24.343 52.5833 25.3716C53.109 26.3773 53.3719 27.6802 53.3719 29.2802V37.5087C53.3719 38.2173 53.2005 38.7659 52.8576 39.1545C52.5147 39.5202 52.0233 39.703 51.3833 39.703C50.7433 39.703 50.2405 39.5202 49.8747 39.1545C49.5319 38.7659 49.3605 38.2173 49.3605 37.5087V35.863H49.6347C49.4747 36.663 49.1547 37.3602 48.6747 37.9545C48.2176 38.5259 47.6347 38.9716 46.9262 39.2916C46.2176 39.6116 45.4062 39.7716 44.4919 39.7716Z" fill="#222222"/>
<path d="M61.5619 39.703C60.8762 39.703 60.3505 39.5202 59.9847 39.1545C59.619 38.7659 59.4362 38.2173 59.4362 37.5087V24.5487C59.4362 23.8402 59.619 23.303 59.9847 22.9373C60.3505 22.5716 60.8647 22.3887 61.5276 22.3887C62.1905 22.3887 62.7047 22.5716 63.0705 22.9373C63.4362 23.303 63.619 23.8402 63.619 24.5487V26.8802L63.2419 26.023C63.7447 24.8116 64.5219 23.8973 65.5733 23.2802C66.6476 22.6402 67.859 22.3202 69.2076 22.3202C70.5562 22.3202 71.6647 22.5716 72.5333 23.0745C73.4019 23.5773 74.0533 24.343 74.4876 25.3716C74.9219 26.3773 75.139 27.6573 75.139 29.2116V37.5087C75.139 38.2173 74.9562 38.7659 74.5905 39.1545C74.2247 39.5202 73.699 39.703 73.0133 39.703C72.3276 39.703 71.7905 39.5202 71.4019 39.1545C71.0362 38.7659 70.8533 38.2173 70.8533 37.5087V29.4173C70.8533 28.1145 70.6019 27.1659 70.099 26.5716C69.619 25.9773 68.8647 25.6802 67.8362 25.6802C66.579 25.6802 65.5733 26.0802 64.819 26.8802C64.0876 27.6573 63.7219 28.6973 63.7219 30.0002V37.5087C63.7219 38.9716 63.0019 39.703 61.5619 39.703Z" fill="#222222"/>
<path d="M88.8863 39.7716C87.4005 39.7716 86.1548 39.5202 85.1491 39.0173C84.1663 38.5145 83.4348 37.783 82.9548 36.823C82.4748 35.8402 82.2348 34.6287 82.2348 33.1887V25.8859H80.452C79.9034 25.8859 79.4805 25.7487 79.1834 25.4745C78.8863 25.1773 78.7377 24.7773 78.7377 24.2745C78.7377 23.7487 78.8863 23.3487 79.1834 23.0745C79.4805 22.8002 79.9034 22.663 80.452 22.663H82.2348V19.543C82.2348 18.8345 82.4177 18.2973 82.7834 17.9316C83.172 17.5659 83.7091 17.383 84.3948 17.383C85.0805 17.383 85.6063 17.5659 85.972 17.9316C86.3377 18.2973 86.5205 18.8345 86.5205 19.543V22.663H90.1548C90.7034 22.663 91.1263 22.8002 91.4234 23.0745C91.7205 23.3487 91.8691 23.7487 91.8691 24.2745C91.8691 24.7773 91.7205 25.1773 91.4234 25.4745C91.1263 25.7487 90.7034 25.8859 90.1548 25.8859H86.5205V32.9487C86.5205 34.0459 86.7605 34.8687 87.2405 35.4173C87.7205 35.9659 88.4977 36.2402 89.572 36.2402C89.9605 36.2402 90.3034 36.2059 90.6005 36.1373C90.8977 36.0687 91.1605 36.023 91.3891 36.0002C91.6634 35.9773 91.892 36.0687 92.0748 36.2745C92.2577 36.4573 92.3491 36.8459 92.3491 37.4402C92.3491 37.8973 92.2691 38.3087 92.1091 38.6745C91.972 39.0173 91.7091 39.2573 91.3205 39.3945C91.0234 39.4859 90.6348 39.5659 90.1548 39.6345C89.6748 39.7259 89.252 39.7716 88.8863 39.7716Z" fill="#222222"/>
<path d="M100.598 45.8745C100.095 45.8745 99.684 45.7373 99.364 45.463C99.044 45.2116 98.8497 44.8687 98.7812 44.4345C98.7355 44.0002 98.8155 43.543 99.0212 43.063L101.353 37.8859V39.6687L95.1126 25.2345C94.9069 24.7316 94.8383 24.263 94.9069 23.8287C94.9754 23.3945 95.1812 23.0516 95.524 22.8002C95.8897 22.5259 96.3812 22.3887 96.9983 22.3887C97.524 22.3887 97.9469 22.5145 98.2669 22.7659C98.5869 22.9945 98.8726 23.4402 99.124 24.103L103.753 35.6573H102.724L107.455 24.0687C107.707 23.4287 108.004 22.9945 108.347 22.7659C108.69 22.5145 109.147 22.3887 109.718 22.3887C110.221 22.3887 110.621 22.5259 110.918 22.8002C111.215 23.0516 111.398 23.3945 111.467 23.8287C111.535 24.2402 111.455 24.6973 111.227 25.2002L102.895 44.2287C102.598 44.8687 102.278 45.303 101.935 45.5316C101.593 45.7602 101.147 45.8745 100.598 45.8745Z" fill="#222222"/>
<path d="M129.77 39.4287C129.062 39.4287 128.513 39.2345 128.125 38.8459C127.736 38.4345 127.542 37.8745 127.542 37.1659V17.383C127.542 16.6516 127.725 16.103 128.09 15.7373C128.479 15.3487 129.028 15.1545 129.736 15.1545C130.445 15.1545 130.982 15.3487 131.348 15.7373C131.736 16.103 131.93 16.6516 131.93 17.383V35.6916H141.873C142.49 35.6916 142.959 35.8516 143.279 36.1716C143.622 36.4916 143.793 36.9487 143.793 37.543C143.793 38.1373 143.622 38.6059 143.279 38.9487C142.959 39.2687 142.49 39.4287 141.873 39.4287H129.77Z" fill="#222222"/>
<path d="M150.223 39.6687C149.537 39.6687 149.011 39.463 148.645 39.0516C148.28 38.6402 148.097 38.0687 148.097 37.3373V24.7545C148.097 24.0002 148.28 23.4287 148.645 23.0402C149.011 22.6287 149.537 22.423 150.223 22.423C150.908 22.423 151.434 22.6287 151.8 23.0402C152.188 23.4287 152.383 24.0002 152.383 24.7545V37.3373C152.383 38.0687 152.2 38.6402 151.834 39.0516C151.468 39.463 150.931 39.6687 150.223 39.6687ZM150.223 19.2345C149.423 19.2345 148.794 19.0402 148.337 18.6516C147.903 18.2402 147.685 17.6802 147.685 16.9716C147.685 16.2402 147.903 15.6802 148.337 15.2916C148.794 14.903 149.423 14.7087 150.223 14.7087C151.045 14.7087 151.674 14.903 152.108 15.2916C152.543 15.6802 152.76 16.2402 152.76 16.9716C152.76 17.6802 152.543 18.2402 152.108 18.6516C151.674 19.0402 151.045 19.2345 150.223 19.2345Z" fill="#222222"/>
<path d="M161.841 39.703C161.156 39.703 160.619 39.5202 160.23 39.1545C159.864 38.7659 159.681 38.2173 159.681 37.5087V25.8859H158.104C157.556 25.8859 157.133 25.7487 156.836 25.4745C156.539 25.1773 156.39 24.7773 156.39 24.2745C156.39 23.7487 156.539 23.3487 156.836 23.0745C157.133 22.8002 157.556 22.663 158.104 22.663H160.916L159.681 23.7945V22.6287C159.681 20.2745 160.276 18.5145 161.464 17.3487C162.653 16.1602 164.367 15.463 166.607 15.2573L167.773 15.1545C168.23 15.1087 168.596 15.1887 168.87 15.3945C169.144 15.5773 169.327 15.8287 169.419 16.1487C169.51 16.4459 169.521 16.7545 169.453 17.0745C169.384 17.3945 169.236 17.6802 169.007 17.9316C168.801 18.1602 168.527 18.2859 168.184 18.3087L167.704 18.343C166.401 18.4345 165.453 18.7659 164.859 19.3373C164.264 19.9087 163.967 20.7773 163.967 21.943V23.2116L163.419 22.663H166.881C167.43 22.663 167.853 22.8002 168.15 23.0745C168.447 23.3487 168.596 23.7487 168.596 24.2745C168.596 24.7773 168.447 25.1773 168.15 25.4745C167.853 25.7487 167.43 25.8859 166.881 25.8859H163.967V37.5087C163.967 38.9716 163.259 39.703 161.841 39.703Z" fill="#222222"/>
<path d="M180.581 39.7716C178.684 39.7716 177.049 39.4173 175.678 38.7087C174.306 38.0002 173.244 36.9945 172.489 35.6916C171.758 34.3887 171.392 32.8459 171.392 31.063C171.392 29.3259 171.746 27.8059 172.455 26.503C173.186 25.2002 174.181 24.183 175.438 23.4516C176.718 22.6973 178.169 22.3202 179.792 22.3202C180.981 22.3202 182.044 22.5145 182.981 22.903C183.941 23.2916 184.752 23.8516 185.415 24.583C186.101 25.3145 186.615 26.2059 186.958 27.2573C187.324 28.2859 187.506 29.4516 187.506 30.7545C187.506 31.1659 187.358 31.4859 187.061 31.7145C186.786 31.9202 186.386 32.023 185.861 32.023H174.855V29.5545H184.489L183.941 30.0687C183.941 29.0173 183.781 28.1373 183.461 27.4287C183.164 26.7202 182.718 26.183 182.124 25.8173C181.552 25.4287 180.832 25.2345 179.964 25.2345C179.004 25.2345 178.181 25.463 177.495 25.9202C176.832 26.3545 176.318 26.983 175.952 27.8059C175.609 28.6059 175.438 29.5659 175.438 30.6859V30.9259C175.438 32.8002 175.872 34.2059 176.741 35.143C177.632 36.0573 178.935 36.5145 180.649 36.5145C181.244 36.5145 181.906 36.4459 182.638 36.3087C183.392 36.1487 184.101 35.8859 184.764 35.5202C185.244 35.2459 185.666 35.1316 186.032 35.1773C186.398 35.2002 186.684 35.3259 186.889 35.5545C187.118 35.783 187.255 36.0687 187.301 36.4116C187.346 36.7316 187.278 37.063 187.095 37.4059C186.935 37.7487 186.649 38.0459 186.238 38.2973C185.438 38.8002 184.512 39.1773 183.461 39.4287C182.432 39.6573 181.472 39.7716 180.581 39.7716Z" fill="#222222"/>
<path d="M112.932 18.0793C112.598 18.7985 112.093 19.8856 112.404 21.1896C112.527 21.6983 112.754 22.1758 113.07 22.5891C113.383 23.0068 113.768 23.3599 114.206 23.6293C115.341 24.2834 116.488 24.0656 117.246 23.922C119.424 23.5088 121.359 22.0832 122.994 19.6857C124.369 17.6629 124.778 14.484 124.886 13.2732C123.726 13.0584 120.645 12.6145 118.395 13.4573C115.729 14.4586 113.893 16.0126 112.932 18.0793Z" fill="#678F58"/>
<path d="M111.961 17.5748C113.043 15.2438 115.077 13.504 118.012 12.4033C118.523 12.2157 119.052 12.0787 119.59 11.994C119.62 11.8505 119.65 11.7065 119.677 11.5606C120.278 8.36325 119.094 4.306 118.65 2.94952C117.324 3.27887 113.43 4.4033 111.205 6.65563C108.647 9.24619 107.309 12.0463 107.228 14.9785C107.2 16.0066 107.158 17.5608 108.175 18.945C108.574 19.4848 109.079 19.9307 109.655 20.252C110.157 20.534 110.698 20.731 111.257 20.8355C111.25 20.812 111.259 20.8596 111.257 20.8355C111.076 19.3833 111.623 18.2959 111.961 17.5748Z" fill="#678F58"/>
</svg>
